<svg xmlns="http://www.w3.org/2000/svg" width="24" height="24" viewBox="0 0 24 24">
    <g fill="none" fill-rule="evenodd">
        <circle cx="12" cy="12" r="12" fill="#FF3C80"/>
        <path fill="#FFF" fill-rule="nonzero" d="M8.932 6C6.898 6 5.25 7.598 5.25 9.57c0 3.432 4.106 6.712 6.024 8.172l.005.004.044.035c.196.141.433.218.677.219.244 0 .482-.078.677-.22l.013-.009.01-.008.01-.01c1.913-1.454 6.04-4.743 6.04-8.183 0-1.972-1.648-3.57-3.682-3.57C13.125 6 12 7.636 12 7.636S10.875 6 8.932 6z"/>
    </g>
</svg>
