<svg xmlns="http://www.w3.org/2000/svg" width="24" height="24" viewBox="0 0 24 24">
    <g fill="none" fill-rule="evenodd">
        <circle cx="12" cy="12" r="12" fill="#44D5D7"/>
        <path fill="#FFF" fill-rule="nonzero" d="M15.232 4.815c-.54.028-1.005.252-1.348.646-.875 1.012-.673 2.763-.648 2.959.143 1.087.528 2.223.543 2.273l.128.371 3.657-.191.121-.32c.015-.043.382-1.03.356-1.922-.033-1-.395-2.458-1.314-3.27-.436-.386-.95-.574-1.495-.546zm-1.343 7.272l-.071.404c-.022.13-.033.257-.04.38-.011.182-.011.371.002.598.066 1.095.627 1.943 1.396 2.107.118.026.227.037.334.031.487-.025.905-.22 1.211-.562.477-.532.68-1.416.609-2.627l-.03-.51-3.411.18zm-5.121-3.93c-.543-.028-1.06.16-1.495.544-.917.815-1.282 2.27-1.315 3.27-.028.892.34 1.881.356 1.922l.119.322 3.66.192.125-.371c.016-.048.405-1.186.545-2.273.025-.196.225-1.948-.65-2.957-.34-.396-.806-.62-1.345-.648zm-2.072 7.094l-.027.51c-.071 1.211.134 2.095.609 2.627.306.342.724.537 1.212.562.106.006.215-.005.333-.03.771-.166 1.33-1.013 1.396-2.108.012-.227.014-.416.003-.598-.005-.123-.019-.25-.04-.38l-.072-.404-3.414-.179z"/>
    </g>
</svg>
